<svg width="24" height="24" viewBox="0 0 24 24" xmlns="http://www.w3.org/2000/svg"><g id="Icons" stroke="none" stroke-width="1" fill="none" fill-rule="evenodd"><g id="twitter-copy-3"><rect id="back" fill="#00ACED" x="0" y="0" width="24" height="24" rx="12"/><path d="M13.772 1.325a5.647 5.647 0 0 1-1.622.444A2.836 2.836 0 0 0 13.392.207a5.66 5.66 0 0 1-1.795.685 2.826 2.826 0 0 0-4.815 2.577A8.022 8.022 0 0 1 .96.517a2.823 2.823 0 0 0 .874 3.772 2.818 2.818 0 0 1-1.28-.354v.036c0 1.368.974 2.51 2.267 2.77a2.845 2.845 0 0 1-1.276.048 2.828 2.828 0 0 0 2.64 1.962A5.669 5.669 0 0 1 0 9.92a7.998 7.998 0 0 0 4.331 1.269c5.198 0 8.04-4.304 8.04-8.037a8.86 8.86 0 0 0-.008-.366 5.743 5.743 0 0 0 1.41-1.462z" transform="translate(6 7)" id="ico" fill="#FFF"/></g></g></svg>